<?xml version="1.0" encoding="UTF-8" ?>
<svg version="1.1" width="480" height="480" xmlns="http://www.w3.org/2000/svg" shape-rendering="crispEdges">
<rect x="45" y="120" width="15" height="15" fill="#000000" />
<rect x="60" y="120" width="15" height="15" fill="#000000" />
<rect x="75" y="120" width="15" height="15" fill="#000000" />
<rect x="90" y="120" width="15" height="15" fill="#000000" />
<rect x="105" y="120" width="15" height="15" fill="#000000" />
<rect x="120" y="120" width="15" height="15" fill="#000000" />
<rect x="135" y="120" width="15" height="15" fill="#000000" />
<rect x="150" y="120" width="15" height="15" fill="#000000" />
<rect x="165" y="120" width="15" height="15" fill="#000000" />
<rect x="180" y="120" width="15" height="15" fill="#000000" />
<rect x="195" y="120" width="15" height="15" fill="#000000" />
<rect x="210" y="120" width="15" height="15" fill="#000000" />
<rect x="225" y="120" width="15" height="15" fill="#000000" />
<rect x="240" y="120" width="15" height="15" fill="#000000" />
<rect x="255" y="120" width="15" height="15" fill="#000000" />
<rect x="270" y="120" width="15" height="15" fill="#000000" />
<rect x="285" y="120" width="15" height="15" fill="#000000" />
<rect x="300" y="120" width="15" height="15" fill="#000000" />
<rect x="315" y="120" width="15" height="15" fill="#000000" />
<rect x="330" y="120" width="15" height="15" fill="#000000" />
<rect x="345" y="120" width="15" height="15" fill="#000000" />
<rect x="360" y="120" width="15" height="15" fill="#000000" />
<rect x="375" y="120" width="15" height="15" fill="#000000" />
<rect x="390" y="120" width="15" height="15" fill="#000000" />
<rect x="405" y="120" width="15" height="15" fill="#000000" />
<rect x="420" y="120" width="15" height="15" fill="#000000" />
<rect x="435" y="120" width="15" height="15" fill="#000000" />
<rect x="30" y="135" width="15" height="15" fill="#000000" />
<rect x="45" y="135" width="15" height="15" fill="#000000" />
<rect x="60" y="135" width="15" height="15" fill="#A8CC85" />
<rect x="75" y="135" width="15" height="15" fill="#A8CC85" />
<rect x="90" y="135" width="15" height="15" fill="#A8CC85" />
<rect x="105" y="135" width="15" height="15" fill="#A8CC85" />
<rect x="120" y="135" width="15" height="15" fill="#A8CC85" />
<rect x="135" y="135" width="15" height="15" fill="#A8CC85" />
<rect x="150" y="135" width="15" height="15" fill="#A8CC85" />
<rect x="165" y="135" width="15" height="15" fill="#A8CC85" />
<rect x="180" y="135" width="15" height="15" fill="#A8CC85" />
<rect x="195" y="135" width="15" height="15" fill="#A8CC85" />
<rect x="210" y="135" width="15" height="15" fill="#A8CC85" />
<rect x="225" y="135" width="15" height="15" fill="#A8CC85" />
<rect x="240" y="135" width="15" height="15" fill="#A8CC85" />
<rect x="255" y="135" width="15" height="15" fill="#A8CC85" />
<rect x="270" y="135" width="15" height="15" fill="#A8CC85" />
<rect x="285" y="135" width="15" height="15" fill="#A8CC85" />
<rect x="300" y="135" width="15" height="15" fill="#A8CC85" />
<rect x="315" y="135" width="15" height="15" fill="#A8CC85" />
<rect x="330" y="135" width="15" height="15" fill="#A8CC85" />
<rect x="345" y="135" width="15" height="15" fill="#A8CC85" />
<rect x="360" y="135" width="15" height="15" fill="#A8CC85" />
<rect x="375" y="135" width="15" height="15" fill="#A8CC85" />
<rect x="390" y="135" width="15" height="15" fill="#A8CC85" />
<rect x="405" y="135" width="15" height="15" fill="#A8CC85" />
<rect x="420" y="135" width="15" height="15" fill="#A8CC85" />
<rect x="435" y="135" width="15" height="15" fill="#000000" />
<rect x="450" y="135" width="15" height="15" fill="#000000" />
<rect x="30" y="150" width="15" height="15" fill="#000000" />
<rect x="45" y="150" width="15" height="15" fill="#A8CC85" />
<rect x="60" y="150" width="15" height="15" fill="#A8CC85" />
<rect x="75" y="150" width="15" height="15" fill="#A8CC85" />
<rect x="90" y="150" width="15" height="15" fill="#A8CC85" />
<rect x="105" y="150" width="15" height="15" fill="#A8CC85" />
<rect x="120" y="150" width="15" height="15" fill="#A8CC85" />
<rect x="135" y="150" width="15" height="15" fill="#A8CC85" />
<rect x="150" y="150" width="15" height="15" fill="#A8CC85" />
<rect x="165" y="150" width="15" height="15" fill="#A8CC85" />
<rect x="180" y="150" width="15" height="15" fill="#A8CC85" />
<rect x="195" y="150" width="15" height="15" fill="#A8CC85" />
<rect x="210" y="150" width="15" height="15" fill="#A8CC85" />
<rect x="225" y="150" width="15" height="15" fill="#A8CC85" />
<rect x="240" y="150" width="15" height="15" fill="#A8CC85" />
<rect x="255" y="150" width="15" height="15" fill="#A8CC85" />
<rect x="270" y="150" width="15" height="15" fill="#A8CC85" />
<rect x="285" y="150" width="15" height="15" fill="#A8CC85" />
<rect x="300" y="150" width="15" height="15" fill="#A8CC85" />
<rect x="315" y="150" width="15" height="15" fill="#A8CC85" />
<rect x="330" y="150" width="15" height="15" fill="#A8CC85" />
<rect x="345" y="150" width="15" height="15" fill="#A8CC85" />
<rect x="360" y="150" width="15" height="15" fill="#A8CC85" />
<rect x="375" y="150" width="15" height="15" fill="#A8CC85" />
<rect x="390" y="150" width="15" height="15" fill="#A8CC85" />
<rect x="405" y="150" width="15" height="15" fill="#A8CC85" />
<rect x="420" y="150" width="15" height="15" fill="#A8CC85" />
<rect x="435" y="150" width="15" height="15" fill="#A8CC85" />
<rect x="450" y="150" width="15" height="15" fill="#000000" />
<rect x="30" y="165" width="15" height="15" fill="#000000" />
<rect x="45" y="165" width="15" height="15" fill="#A8CC85" />
<rect x="60" y="165" width="15" height="15" fill="#A8CC85" />
<rect x="75" y="165" width="15" height="15" fill="#A8CC85" />
<rect x="90" y="165" width="15" height="15" fill="#A8CC85" />
<rect x="105" y="165" width="15" height="15" fill="#FFFFFF" />
<rect x="120" y="165" width="15" height="15" fill="#FFFFFF" />
<rect x="135" y="165" width="15" height="15" fill="#FFFFFF" />
<rect x="150" y="165" width="15" height="15" fill="#A8CC85" />
<rect x="165" y="165" width="15" height="15" fill="#FFFFFF" />
<rect x="180" y="165" width="15" height="15" fill="#FFFFFF" />
<rect x="195" y="165" width="15" height="15" fill="#FFFFFF" />
<rect x="210" y="165" width="15" height="15" fill="#A8CC85" />
<rect x="225" y="165" width="15" height="15" fill="#FFFFFF" />
<rect x="240" y="165" width="15" height="15" fill="#FFFFFF" />
<rect x="255" y="165" width="15" height="15" fill="#FFFFFF" />
<rect x="270" y="165" width="15" height="15" fill="#A8CC85" />
<rect x="285" y="165" width="15" height="15" fill="#FFFFFF" />
<rect x="300" y="165" width="15" height="15" fill="#FFFFFF" />
<rect x="315" y="165" width="15" height="15" fill="#FFFFFF" />
<rect x="330" y="165" width="15" height="15" fill="#A8CC85" />
<rect x="345" y="165" width="15" height="15" fill="#FFFFFF" />
<rect x="360" y="165" width="15" height="15" fill="#FFFFFF" />
<rect x="375" y="165" width="15" height="15" fill="#FFFFFF" />
<rect x="390" y="165" width="15" height="15" fill="#A8CC85" />
<rect x="405" y="165" width="15" height="15" fill="#A8CC85" />
<rect x="420" y="165" width="15" height="15" fill="#A8CC85" />
<rect x="435" y="165" width="15" height="15" fill="#A8CC85" />
<rect x="450" y="165" width="15" height="15" fill="#000000" />
<rect x="30" y="180" width="15" height="15" fill="#000000" />
<rect x="45" y="180" width="15" height="15" fill="#A8CC85" />
<rect x="60" y="180" width="15" height="15" fill="#A8CC85" />
<rect x="75" y="180" width="15" height="15" fill="#A8CC85" />
<rect x="90" y="180" width="15" height="15" fill="#A8CC85" />
<rect x="105" y="180" width="15" height="15" fill="#FFFFFF" />
<rect x="120" y="180" width="15" height="15" fill="#A8CC85" />
<rect x="135" y="180" width="15" height="15" fill="#A8CC85" />
<rect x="150" y="180" width="15" height="15" fill="#A8CC85" />
<rect x="165" y="180" width="15" height="15" fill="#A8CC85" />
<rect x="180" y="180" width="15" height="15" fill="#FFFFFF" />
<rect x="195" y="180" width="15" height="15" fill="#A8CC85" />
<rect x="210" y="180" width="15" height="15" fill="#A8CC85" />
<rect x="225" y="180" width="15" height="15" fill="#FFFFFF" />
<rect x="240" y="180" width="15" height="15" fill="#99E550" />
<rect x="255" y="180" width="15" height="15" fill="#FFFFFF" />
<rect x="270" y="180" width="15" height="15" fill="#A8CC85" />
<rect x="285" y="180" width="15" height="15" fill="#FFFFFF" />
<rect x="300" y="180" width="15" height="15" fill="#99E550" />
<rect x="315" y="180" width="15" height="15" fill="#FFFFFF" />
<rect x="330" y="180" width="15" height="15" fill="#A8CC85" />
<rect x="345" y="180" width="15" height="15" fill="#A8CC85" />
<rect x="360" y="180" width="15" height="15" fill="#FFFFFF" />
<rect x="375" y="180" width="15" height="15" fill="#A8CC85" />
<rect x="390" y="180" width="15" height="15" fill="#A8CC85" />
<rect x="405" y="180" width="15" height="15" fill="#A8CC85" />
<rect x="420" y="180" width="15" height="15" fill="#A8CC85" />
<rect x="435" y="180" width="15" height="15" fill="#A8CC85" />
<rect x="450" y="180" width="15" height="15" fill="#000000" />
<rect x="30" y="195" width="15" height="15" fill="#000000" />
<rect x="45" y="195" width="15" height="15" fill="#A8CC85" />
<rect x="60" y="195" width="15" height="15" fill="#A8CC85" />
<rect x="75" y="195" width="15" height="15" fill="#A8CC85" />
<rect x="90" y="195" width="15" height="15" fill="#A8CC85" />
<rect x="105" y="195" width="15" height="15" fill="#FFFFFF" />
<rect x="120" y="195" width="15" height="15" fill="#FFFFFF" />
<rect x="135" y="195" width="15" height="15" fill="#FFFFFF" />
<rect x="150" y="195" width="15" height="15" fill="#A8CC85" />
<rect x="165" y="195" width="15" height="15" fill="#A8CC85" />
<rect x="180" y="195" width="15" height="15" fill="#FFFFFF" />
<rect x="195" y="195" width="15" height="15" fill="#A8CC85" />
<rect x="210" y="195" width="15" height="15" fill="#A8CC85" />
<rect x="225" y="195" width="15" height="15" fill="#FFFFFF" />
<rect x="240" y="195" width="15" height="15" fill="#99E550" />
<rect x="255" y="195" width="15" height="15" fill="#FFFFFF" />
<rect x="270" y="195" width="15" height="15" fill="#A8CC85" />
<rect x="285" y="195" width="15" height="15" fill="#FFFFFF" />
<rect x="300" y="195" width="15" height="15" fill="#FFFFFF" />
<rect x="315" y="195" width="15" height="15" fill="#FFFFFF" />
<rect x="330" y="195" width="15" height="15" fill="#A8CC85" />
<rect x="345" y="195" width="15" height="15" fill="#A8CC85" />
<rect x="360" y="195" width="15" height="15" fill="#FFFFFF" />
<rect x="375" y="195" width="15" height="15" fill="#A8CC85" />
<rect x="390" y="195" width="15" height="15" fill="#A8CC85" />
<rect x="405" y="195" width="15" height="15" fill="#A8CC85" />
<rect x="420" y="195" width="15" height="15" fill="#A8CC85" />
<rect x="435" y="195" width="15" height="15" fill="#A8CC85" />
<rect x="450" y="195" width="15" height="15" fill="#000000" />
<rect x="30" y="210" width="15" height="15" fill="#000000" />
<rect x="45" y="210" width="15" height="15" fill="#A8CC85" />
<rect x="60" y="210" width="15" height="15" fill="#A8CC85" />
<rect x="75" y="210" width="15" height="15" fill="#A8CC85" />
<rect x="90" y="210" width="15" height="15" fill="#A8CC85" />
<rect x="105" y="210" width="15" height="15" fill="#A8CC85" />
<rect x="120" y="210" width="15" height="15" fill="#A8CC85" />
<rect x="135" y="210" width="15" height="15" fill="#FFFFFF" />
<rect x="150" y="210" width="15" height="15" fill="#A8CC85" />
<rect x="165" y="210" width="15" height="15" fill="#A8CC85" />
<rect x="180" y="210" width="15" height="15" fill="#FFFFFF" />
<rect x="195" y="210" width="15" height="15" fill="#A8CC85" />
<rect x="210" y="210" width="15" height="15" fill="#A8CC85" />
<rect x="225" y="210" width="15" height="15" fill="#FFFFFF" />
<rect x="240" y="210" width="15" height="15" fill="#FFFFFF" />
<rect x="255" y="210" width="15" height="15" fill="#FFFFFF" />
<rect x="270" y="210" width="15" height="15" fill="#A8CC85" />
<rect x="285" y="210" width="15" height="15" fill="#FFFFFF" />
<rect x="300" y="210" width="15" height="15" fill="#A8CC85" />
<rect x="315" y="210" width="15" height="15" fill="#FFFFFF" />
<rect x="330" y="210" width="15" height="15" fill="#A8CC85" />
<rect x="345" y="210" width="15" height="15" fill="#A8CC85" />
<rect x="360" y="210" width="15" height="15" fill="#FFFFFF" />
<rect x="375" y="210" width="15" height="15" fill="#A8CC85" />
<rect x="390" y="210" width="15" height="15" fill="#A8CC85" />
<rect x="405" y="210" width="15" height="15" fill="#A8CC85" />
<rect x="420" y="210" width="15" height="15" fill="#A8CC85" />
<rect x="435" y="210" width="15" height="15" fill="#A8CC85" />
<rect x="450" y="210" width="15" height="15" fill="#000000" />
<rect x="30" y="225" width="15" height="15" fill="#000000" />
<rect x="45" y="225" width="15" height="15" fill="#A8CC85" />
<rect x="60" y="225" width="15" height="15" fill="#A8CC85" />
<rect x="75" y="225" width="15" height="15" fill="#A8CC85" />
<rect x="90" y="225" width="15" height="15" fill="#A8CC85" />
<rect x="105" y="225" width="15" height="15" fill="#FFFFFF" />
<rect x="120" y="225" width="15" height="15" fill="#FFFFFF" />
<rect x="135" y="225" width="15" height="15" fill="#FFFFFF" />
<rect x="150" y="225" width="15" height="15" fill="#A8CC85" />
<rect x="165" y="225" width="15" height="15" fill="#A8CC85" />
<rect x="180" y="225" width="15" height="15" fill="#FFFFFF" />
<rect x="195" y="225" width="15" height="15" fill="#A8CC85" />
<rect x="210" y="225" width="15" height="15" fill="#A8CC85" />
<rect x="225" y="225" width="15" height="15" fill="#FFFFFF" />
<rect x="240" y="225" width="15" height="15" fill="#A8CC85" />
<rect x="255" y="225" width="15" height="15" fill="#FFFFFF" />
<rect x="270" y="225" width="15" height="15" fill="#A8CC85" />
<rect x="285" y="225" width="15" height="15" fill="#FFFFFF" />
<rect x="300" y="225" width="15" height="15" fill="#A8CC85" />
<rect x="315" y="225" width="15" height="15" fill="#FFFFFF" />
<rect x="330" y="225" width="15" height="15" fill="#A8CC85" />
<rect x="345" y="225" width="15" height="15" fill="#A8CC85" />
<rect x="360" y="225" width="15" height="15" fill="#FFFFFF" />
<rect x="375" y="225" width="15" height="15" fill="#A8CC85" />
<rect x="390" y="225" width="15" height="15" fill="#A8CC85" />
<rect x="405" y="225" width="15" height="15" fill="#A8CC85" />
<rect x="420" y="225" width="15" height="15" fill="#A8CC85" />
<rect x="435" y="225" width="15" height="15" fill="#A8CC85" />
<rect x="450" y="225" width="15" height="15" fill="#000000" />
<rect x="30" y="240" width="15" height="15" fill="#000000" />
<rect x="45" y="240" width="15" height="15" fill="#A8CC85" />
<rect x="60" y="240" width="15" height="15" fill="#A8CC85" />
<rect x="75" y="240" width="15" height="15" fill="#A8CC85" />
<rect x="90" y="240" width="15" height="15" fill="#A8CC85" />
<rect x="105" y="240" width="15" height="15" fill="#A8CC85" />
<rect x="120" y="240" width="15" height="15" fill="#A8CC85" />
<rect x="135" y="240" width="15" height="15" fill="#A8CC85" />
<rect x="150" y="240" width="15" height="15" fill="#A8CC85" />
<rect x="165" y="240" width="15" height="15" fill="#A8CC85" />
<rect x="180" y="240" width="15" height="15" fill="#A8CC85" />
<rect x="195" y="240" width="15" height="15" fill="#A8CC85" />
<rect x="210" y="240" width="15" height="15" fill="#A8CC85" />
<rect x="225" y="240" width="15" height="15" fill="#A8CC85" />
<rect x="240" y="240" width="15" height="15" fill="#A8CC85" />
<rect x="255" y="240" width="15" height="15" fill="#A8CC85" />
<rect x="270" y="240" width="15" height="15" fill="#A8CC85" />
<rect x="285" y="240" width="15" height="15" fill="#A8CC85" />
<rect x="300" y="240" width="15" height="15" fill="#A8CC85" />
<rect x="315" y="240" width="15" height="15" fill="#A8CC85" />
<rect x="330" y="240" width="15" height="15" fill="#A8CC85" />
<rect x="345" y="240" width="15" height="15" fill="#A8CC85" />
<rect x="360" y="240" width="15" height="15" fill="#A8CC85" />
<rect x="375" y="240" width="15" height="15" fill="#A8CC85" />
<rect x="390" y="240" width="15" height="15" fill="#A8CC85" />
<rect x="405" y="240" width="15" height="15" fill="#A8CC85" />
<rect x="420" y="240" width="15" height="15" fill="#A8CC85" />
<rect x="435" y="240" width="15" height="15" fill="#A8CC85" />
<rect x="450" y="240" width="15" height="15" fill="#000000" />
<rect x="30" y="255" width="15" height="15" fill="#000000" />
<rect x="45" y="255" width="15" height="15" fill="#A8CC85" />
<rect x="60" y="255" width="15" height="15" fill="#A8CC85" />
<rect x="75" y="255" width="15" height="15" fill="#A8CC85" />
<rect x="90" y="255" width="15" height="15" fill="#A8CC85" />
<rect x="105" y="255" width="15" height="15" fill="#A8CC85" />
<rect x="120" y="255" width="15" height="15" fill="#A8CC85" />
<rect x="135" y="255" width="15" height="15" fill="#A8CC85" />
<rect x="150" y="255" width="15" height="15" fill="#A8CC85" />
<rect x="165" y="255" width="15" height="15" fill="#A8CC85" />
<rect x="180" y="255" width="15" height="15" fill="#A8CC85" />
<rect x="195" y="255" width="15" height="15" fill="#A8CC85" />
<rect x="210" y="255" width="15" height="15" fill="#A8CC85" />
<rect x="225" y="255" width="15" height="15" fill="#A8CC85" />
<rect x="240" y="255" width="15" height="15" fill="#A8CC85" />
<rect x="255" y="255" width="15" height="15" fill="#A8CC85" />
<rect x="270" y="255" width="15" height="15" fill="#A8CC85" />
<rect x="285" y="255" width="15" height="15" fill="#A8CC85" />
<rect x="300" y="255" width="15" height="15" fill="#A8CC85" />
<rect x="315" y="255" width="15" height="15" fill="#A8CC85" />
<rect x="330" y="255" width="15" height="15" fill="#A8CC85" />
<rect x="345" y="255" width="15" height="15" fill="#A8CC85" />
<rect x="360" y="255" width="15" height="15" fill="#A8CC85" />
<rect x="375" y="255" width="15" height="15" fill="#A8CC85" />
<rect x="390" y="255" width="15" height="15" fill="#A8CC85" />
<rect x="405" y="255" width="15" height="15" fill="#A8CC85" />
<rect x="420" y="255" width="15" height="15" fill="#A8CC85" />
<rect x="435" y="255" width="15" height="15" fill="#A8CC85" />
<rect x="450" y="255" width="15" height="15" fill="#000000" />
<rect x="30" y="270" width="15" height="15" fill="#000000" />
<rect x="45" y="270" width="15" height="15" fill="#A8CC85" />
<rect x="60" y="270" width="15" height="15" fill="#A8CC85" />
<rect x="75" y="270" width="15" height="15" fill="#A8CC85" />
<rect x="90" y="270" width="15" height="15" fill="#A8CC85" />
<rect x="105" y="270" width="15" height="15" fill="#A8CC85" />
<rect x="120" y="270" width="15" height="15" fill="#A8CC85" />
<rect x="135" y="270" width="15" height="15" fill="#A8CC85" />
<rect x="150" y="270" width="15" height="15" fill="#A8CC85" />
<rect x="165" y="270" width="15" height="15" fill="#A8CC85" />
<rect x="180" y="270" width="15" height="15" fill="#A8CC85" />
<rect x="195" y="270" width="15" height="15" fill="#A8CC85" />
<rect x="210" y="270" width="15" height="15" fill="#A8CC85" />
<rect x="225" y="270" width="15" height="15" fill="#A8CC85" />
<rect x="240" y="270" width="15" height="15" fill="#A8CC85" />
<rect x="255" y="270" width="15" height="15" fill="#A8CC85" />
<rect x="270" y="270" width="15" height="15" fill="#A8CC85" />
<rect x="285" y="270" width="15" height="15" fill="#A8CC85" />
<rect x="300" y="270" width="15" height="15" fill="#A8CC85" />
<rect x="315" y="270" width="15" height="15" fill="#A8CC85" />
<rect x="330" y="270" width="15" height="15" fill="#A8CC85" />
<rect x="345" y="270" width="15" height="15" fill="#A8CC85" />
<rect x="360" y="270" width="15" height="15" fill="#A8CC85" />
<rect x="375" y="270" width="15" height="15" fill="#A8CC85" />
<rect x="390" y="270" width="15" height="15" fill="#A8CC85" />
<rect x="405" y="270" width="15" height="15" fill="#A8CC85" />
<rect x="420" y="270" width="15" height="15" fill="#A8CC85" />
<rect x="435" y="270" width="15" height="15" fill="#A8CC85" />
<rect x="450" y="270" width="15" height="15" fill="#000000" />
<rect x="30" y="285" width="15" height="15" fill="#000000" />
<rect x="45" y="285" width="15" height="15" fill="#FFFFFF" />
<rect x="60" y="285" width="15" height="15" fill="#A8CC85" />
<rect x="75" y="285" width="15" height="15" fill="#A8CC85" />
<rect x="90" y="285" width="15" height="15" fill="#A8CC85" />
<rect x="105" y="285" width="15" height="15" fill="#A8CC85" />
<rect x="120" y="285" width="15" height="15" fill="#A8CC85" />
<rect x="135" y="285" width="15" height="15" fill="#A8CC85" />
<rect x="150" y="285" width="15" height="15" fill="#A8CC85" />
<rect x="165" y="285" width="15" height="15" fill="#A8CC85" />
<rect x="180" y="285" width="15" height="15" fill="#A8CC85" />
<rect x="195" y="285" width="15" height="15" fill="#A8CC85" />
<rect x="210" y="285" width="15" height="15" fill="#A8CC85" />
<rect x="225" y="285" width="15" height="15" fill="#A8CC85" />
<rect x="240" y="285" width="15" height="15" fill="#A8CC85" />
<rect x="255" y="285" width="15" height="15" fill="#A8CC85" />
<rect x="270" y="285" width="15" height="15" fill="#A8CC85" />
<rect x="285" y="285" width="15" height="15" fill="#A8CC85" />
<rect x="300" y="285" width="15" height="15" fill="#A8CC85" />
<rect x="315" y="285" width="15" height="15" fill="#A8CC85" />
<rect x="330" y="285" width="15" height="15" fill="#A8CC85" />
<rect x="345" y="285" width="15" height="15" fill="#A8CC85" />
<rect x="360" y="285" width="15" height="15" fill="#A8CC85" />
<rect x="375" y="285" width="15" height="15" fill="#A8CC85" />
<rect x="390" y="285" width="15" height="15" fill="#A8CC85" />
<rect x="405" y="285" width="15" height="15" fill="#A8CC85" />
<rect x="420" y="285" width="15" height="15" fill="#A8CC85" />
<rect x="435" y="285" width="15" height="15" fill="#FFFFFF" />
<rect x="450" y="285" width="15" height="15" fill="#000000" />
<rect x="30" y="300" width="15" height="15" fill="#000000" />
<rect x="45" y="300" width="15" height="15" fill="#80B75A" />
<rect x="60" y="300" width="15" height="15" fill="#FFFFFF" />
<rect x="75" y="300" width="15" height="15" fill="#FFFFFF" />
<rect x="90" y="300" width="15" height="15" fill="#FFFFFF" />
<rect x="105" y="300" width="15" height="15" fill="#FFFFFF" />
<rect x="120" y="300" width="15" height="15" fill="#FFFFFF" />
<rect x="135" y="300" width="15" height="15" fill="#FFFFFF" />
<rect x="150" y="300" width="15" height="15" fill="#FFFFFF" />
<rect x="165" y="300" width="15" height="15" fill="#FFFFFF" />
<rect x="180" y="300" width="15" height="15" fill="#FFFFFF" />
<rect x="195" y="300" width="15" height="15" fill="#FFFFFF" />
<rect x="210" y="300" width="15" height="15" fill="#FFFFFF" />
<rect x="225" y="300" width="15" height="15" fill="#FFFFFF" />
<rect x="240" y="300" width="15" height="15" fill="#FFFFFF" />
<rect x="255" y="300" width="15" height="15" fill="#FFFFFF" />
<rect x="270" y="300" width="15" height="15" fill="#FFFFFF" />
<rect x="285" y="300" width="15" height="15" fill="#FFFFFF" />
<rect x="300" y="300" width="15" height="15" fill="#FFFFFF" />
<rect x="315" y="300" width="15" height="15" fill="#FFFFFF" />
<rect x="330" y="300" width="15" height="15" fill="#FFFFFF" />
<rect x="345" y="300" width="15" height="15" fill="#FFFFFF" />
<rect x="360" y="300" width="15" height="15" fill="#FFFFFF" />
<rect x="375" y="300" width="15" height="15" fill="#FFFFFF" />
<rect x="390" y="300" width="15" height="15" fill="#FFFFFF" />
<rect x="405" y="300" width="15" height="15" fill="#FFFFFF" />
<rect x="420" y="300" width="15" height="15" fill="#FFFFFF" />
<rect x="435" y="300" width="15" height="15" fill="#80B75A" />
<rect x="450" y="300" width="15" height="15" fill="#000000" />
<rect x="30" y="315" width="15" height="15" fill="#000000" />
<rect x="45" y="315" width="15" height="15" fill="#80B75A" />
<rect x="60" y="315" width="15" height="15" fill="#80B75A" />
<rect x="75" y="315" width="15" height="15" fill="#80B75A" />
<rect x="90" y="315" width="15" height="15" fill="#80B75A" />
<rect x="105" y="315" width="15" height="15" fill="#80B75A" />
<rect x="120" y="315" width="15" height="15" fill="#80B75A" />
<rect x="135" y="315" width="15" height="15" fill="#80B75A" />
<rect x="150" y="315" width="15" height="15" fill="#80B75A" />
<rect x="165" y="315" width="15" height="15" fill="#80B75A" />
<rect x="180" y="315" width="15" height="15" fill="#80B75A" />
<rect x="195" y="315" width="15" height="15" fill="#80B75A" />
<rect x="210" y="315" width="15" height="15" fill="#80B75A" />
<rect x="225" y="315" width="15" height="15" fill="#80B75A" />
<rect x="240" y="315" width="15" height="15" fill="#80B75A" />
<rect x="255" y="315" width="15" height="15" fill="#80B75A" />
<rect x="270" y="315" width="15" height="15" fill="#80B75A" />
<rect x="285" y="315" width="15" height="15" fill="#80B75A" />
<rect x="300" y="315" width="15" height="15" fill="#80B75A" />
<rect x="315" y="315" width="15" height="15" fill="#80B75A" />
<rect x="330" y="315" width="15" height="15" fill="#80B75A" />
<rect x="345" y="315" width="15" height="15" fill="#80B75A" />
<rect x="360" y="315" width="15" height="15" fill="#80B75A" />
<rect x="375" y="315" width="15" height="15" fill="#80B75A" />
<rect x="390" y="315" width="15" height="15" fill="#80B75A" />
<rect x="405" y="315" width="15" height="15" fill="#80B75A" />
<rect x="420" y="315" width="15" height="15" fill="#80B75A" />
<rect x="435" y="315" width="15" height="15" fill="#80B75A" />
<rect x="450" y="315" width="15" height="15" fill="#000000" />
<rect x="30" y="330" width="15" height="15" fill="#000000" />
<rect x="45" y="330" width="15" height="15" fill="#000000" />
<rect x="60" y="330" width="15" height="15" fill="#80B75A" />
<rect x="75" y="330" width="15" height="15" fill="#80B75A" />
<rect x="90" y="330" width="15" height="15" fill="#80B75A" />
<rect x="105" y="330" width="15" height="15" fill="#80B75A" />
<rect x="120" y="330" width="15" height="15" fill="#80B75A" />
<rect x="135" y="330" width="15" height="15" fill="#80B75A" />
<rect x="150" y="330" width="15" height="15" fill="#80B75A" />
<rect x="165" y="330" width="15" height="15" fill="#80B75A" />
<rect x="180" y="330" width="15" height="15" fill="#80B75A" />
<rect x="195" y="330" width="15" height="15" fill="#80B75A" />
<rect x="210" y="330" width="15" height="15" fill="#80B75A" />
<rect x="225" y="330" width="15" height="15" fill="#80B75A" />
<rect x="240" y="330" width="15" height="15" fill="#80B75A" />
<rect x="255" y="330" width="15" height="15" fill="#80B75A" />
<rect x="270" y="330" width="15" height="15" fill="#80B75A" />
<rect x="285" y="330" width="15" height="15" fill="#80B75A" />
<rect x="300" y="330" width="15" height="15" fill="#80B75A" />
<rect x="315" y="330" width="15" height="15" fill="#80B75A" />
<rect x="330" y="330" width="15" height="15" fill="#80B75A" />
<rect x="345" y="330" width="15" height="15" fill="#80B75A" />
<rect x="360" y="330" width="15" height="15" fill="#80B75A" />
<rect x="375" y="330" width="15" height="15" fill="#80B75A" />
<rect x="390" y="330" width="15" height="15" fill="#80B75A" />
<rect x="405" y="330" width="15" height="15" fill="#80B75A" />
<rect x="420" y="330" width="15" height="15" fill="#80B75A" />
<rect x="435" y="330" width="15" height="15" fill="#000000" />
<rect x="450" y="330" width="15" height="15" fill="#000000" />
<rect x="45" y="345" width="15" height="15" fill="#000000" />
<rect x="60" y="345" width="15" height="15" fill="#000000" />
<rect x="75" y="345" width="15" height="15" fill="#000000" />
<rect x="90" y="345" width="15" height="15" fill="#000000" />
<rect x="105" y="345" width="15" height="15" fill="#000000" />
<rect x="120" y="345" width="15" height="15" fill="#000000" />
<rect x="135" y="345" width="15" height="15" fill="#000000" />
<rect x="150" y="345" width="15" height="15" fill="#000000" />
<rect x="165" y="345" width="15" height="15" fill="#000000" />
<rect x="180" y="345" width="15" height="15" fill="#000000" />
<rect x="195" y="345" width="15" height="15" fill="#000000" />
<rect x="210" y="345" width="15" height="15" fill="#000000" />
<rect x="225" y="345" width="15" height="15" fill="#000000" />
<rect x="240" y="345" width="15" height="15" fill="#000000" />
<rect x="255" y="345" width="15" height="15" fill="#000000" />
<rect x="270" y="345" width="15" height="15" fill="#000000" />
<rect x="285" y="345" width="15" height="15" fill="#000000" />
<rect x="300" y="345" width="15" height="15" fill="#000000" />
<rect x="315" y="345" width="15" height="15" fill="#000000" />
<rect x="330" y="345" width="15" height="15" fill="#000000" />
<rect x="345" y="345" width="15" height="15" fill="#000000" />
<rect x="360" y="345" width="15" height="15" fill="#000000" />
<rect x="375" y="345" width="15" height="15" fill="#000000" />
<rect x="390" y="345" width="15" height="15" fill="#000000" />
<rect x="405" y="345" width="15" height="15" fill="#000000" />
<rect x="420" y="345" width="15" height="15" fill="#000000" />
<rect x="435" y="345" width="15" height="15" fill="#000000" />
</svg>