<?xml version="1.0" encoding="UTF-8" ?>
<svg version="1.1" width="480" height="480" xmlns="http://www.w3.org/2000/svg" shape-rendering="crispEdges">
<rect x="15" y="45" width="15" height="15" fill="#FFFFFF" />
<rect x="30" y="45" width="15" height="15" fill="#FFFFFF" />
<rect x="45" y="45" width="15" height="15" fill="#FFFFFF" />
<rect x="75" y="45" width="15" height="15" fill="#FFFFFF" />
<rect x="105" y="45" width="15" height="15" fill="#FFFFFF" />
<rect x="135" y="45" width="15" height="15" fill="#FFFFFF" />
<rect x="150" y="45" width="15" height="15" fill="#FFFFFF" />
<rect x="210" y="45" width="15" height="15" fill="#FFFFFF" />
<rect x="255" y="45" width="15" height="15" fill="#FFFFFF" />
<rect x="285" y="45" width="15" height="15" fill="#FFFFFF" />
<rect x="300" y="45" width="15" height="15" fill="#FFFFFF" />
<rect x="315" y="45" width="15" height="15" fill="#FFFFFF" />
<rect x="345" y="45" width="15" height="15" fill="#FFFFFF" />
<rect x="375" y="45" width="15" height="15" fill="#FFFFFF" />
<rect x="405" y="45" width="15" height="15" fill="#FFFFFF" />
<rect x="420" y="45" width="15" height="15" fill="#FFFFFF" />
<rect x="435" y="45" width="15" height="15" fill="#FFFFFF" />
<rect x="30" y="60" width="15" height="15" fill="#FFFFFF" />
<rect x="75" y="60" width="15" height="15" fill="#FFFFFF" />
<rect x="105" y="60" width="15" height="15" fill="#FFFFFF" />
<rect x="135" y="60" width="15" height="15" fill="#FFFFFF" />
<rect x="210" y="60" width="15" height="15" fill="#FFFFFF" />
<rect x="255" y="60" width="15" height="15" fill="#FFFFFF" />
<rect x="285" y="60" width="15" height="15" fill="#FFFFFF" />
<rect x="345" y="60" width="15" height="15" fill="#FFFFFF" />
<rect x="375" y="60" width="15" height="15" fill="#FFFFFF" />
<rect x="420" y="60" width="15" height="15" fill="#FFFFFF" />
<rect x="30" y="75" width="15" height="15" fill="#FFFFFF" />
<rect x="75" y="75" width="15" height="15" fill="#FFFFFF" />
<rect x="90" y="75" width="15" height="15" fill="#FFFFFF" />
<rect x="105" y="75" width="15" height="15" fill="#FFFFFF" />
<rect x="135" y="75" width="15" height="15" fill="#FFFFFF" />
<rect x="150" y="75" width="15" height="15" fill="#FFFFFF" />
<rect x="210" y="75" width="15" height="15" fill="#FFFFFF" />
<rect x="255" y="75" width="15" height="15" fill="#FFFFFF" />
<rect x="285" y="75" width="15" height="15" fill="#FFFFFF" />
<rect x="300" y="75" width="15" height="15" fill="#FFFFFF" />
<rect x="315" y="75" width="15" height="15" fill="#FFFFFF" />
<rect x="345" y="75" width="15" height="15" fill="#FFFFFF" />
<rect x="360" y="75" width="15" height="15" fill="#FFFFFF" />
<rect x="375" y="75" width="15" height="15" fill="#FFFFFF" />
<rect x="420" y="75" width="15" height="15" fill="#FFFFFF" />
<rect x="30" y="90" width="15" height="15" fill="#FFFFFF" />
<rect x="75" y="90" width="15" height="15" fill="#FFFFFF" />
<rect x="105" y="90" width="15" height="15" fill="#FFFFFF" />
<rect x="135" y="90" width="15" height="15" fill="#FFFFFF" />
<rect x="210" y="90" width="15" height="15" fill="#FFFFFF" />
<rect x="255" y="90" width="15" height="15" fill="#FFFFFF" />
<rect x="285" y="90" width="15" height="15" fill="#FFFFFF" />
<rect x="315" y="90" width="15" height="15" fill="#FFFFFF" />
<rect x="345" y="90" width="15" height="15" fill="#FFFFFF" />
<rect x="375" y="90" width="15" height="15" fill="#FFFFFF" />
<rect x="420" y="90" width="15" height="15" fill="#FFFFFF" />
<rect x="30" y="105" width="15" height="15" fill="#FFFFFF" />
<rect x="75" y="105" width="15" height="15" fill="#FFFFFF" />
<rect x="105" y="105" width="15" height="15" fill="#FFFFFF" />
<rect x="135" y="105" width="15" height="15" fill="#FFFFFF" />
<rect x="150" y="105" width="15" height="15" fill="#FFFFFF" />
<rect x="210" y="105" width="15" height="15" fill="#FFFFFF" />
<rect x="225" y="105" width="15" height="15" fill="#FFFFFF" />
<rect x="255" y="105" width="15" height="15" fill="#FFFFFF" />
<rect x="285" y="105" width="15" height="15" fill="#FFFFFF" />
<rect x="300" y="105" width="15" height="15" fill="#FFFFFF" />
<rect x="315" y="105" width="15" height="15" fill="#FFFFFF" />
<rect x="345" y="105" width="15" height="15" fill="#FFFFFF" />
<rect x="375" y="105" width="15" height="15" fill="#FFFFFF" />
<rect x="420" y="105" width="15" height="15" fill="#FFFFFF" />
<rect x="195" y="165" width="15" height="15" fill="#FFFFFF" />
<rect x="210" y="165" width="15" height="15" fill="#FFFFFF" />
<rect x="225" y="165" width="15" height="15" fill="#FFFFFF" />
<rect x="255" y="165" width="15" height="15" fill="#FFFFFF" />
<rect x="270" y="165" width="15" height="15" fill="#FFFFFF" />
<rect x="195" y="180" width="15" height="15" fill="#FFFFFF" />
<rect x="225" y="180" width="15" height="15" fill="#FFFFFF" />
<rect x="255" y="180" width="15" height="15" fill="#FFFFFF" />
<rect x="195" y="195" width="15" height="15" fill="#FFFFFF" />
<rect x="225" y="195" width="15" height="15" fill="#FFFFFF" />
<rect x="255" y="195" width="15" height="15" fill="#FFFFFF" />
<rect x="270" y="195" width="15" height="15" fill="#FFFFFF" />
<rect x="195" y="210" width="15" height="15" fill="#FFFFFF" />
<rect x="225" y="210" width="15" height="15" fill="#FFFFFF" />
<rect x="255" y="210" width="15" height="15" fill="#FFFFFF" />
<rect x="195" y="225" width="15" height="15" fill="#FFFFFF" />
<rect x="210" y="225" width="15" height="15" fill="#FFFFFF" />
<rect x="225" y="225" width="15" height="15" fill="#FFFFFF" />
<rect x="255" y="225" width="15" height="15" fill="#FFFFFF" />
<rect x="0" y="255" width="15" height="15" fill="#FFFFFF" />
<rect x="15" y="255" width="15" height="15" fill="#FFFFFF" />
<rect x="45" y="255" width="15" height="15" fill="#FFFFFF" />
<rect x="75" y="255" width="15" height="15" fill="#FFFFFF" />
<rect x="105" y="255" width="15" height="15" fill="#FFFFFF" />
<rect x="120" y="255" width="15" height="15" fill="#FFFFFF" />
<rect x="135" y="255" width="15" height="15" fill="#FFFFFF" />
<rect x="165" y="255" width="15" height="15" fill="#FFFFFF" />
<rect x="195" y="255" width="15" height="15" fill="#FFFFFF" />
<rect x="210" y="255" width="15" height="15" fill="#FFFFFF" />
<rect x="225" y="255" width="15" height="15" fill="#FFFFFF" />
<rect x="255" y="255" width="15" height="15" fill="#FFFFFF" />
<rect x="270" y="255" width="15" height="15" fill="#FFFFFF" />
<rect x="285" y="255" width="15" height="15" fill="#FFFFFF" />
<rect x="315" y="255" width="15" height="15" fill="#FFFFFF" />
<rect x="345" y="255" width="15" height="15" fill="#FFFFFF" />
<rect x="375" y="255" width="15" height="15" fill="#FFFFFF" />
<rect x="390" y="255" width="15" height="15" fill="#FFFFFF" />
<rect x="405" y="255" width="15" height="15" fill="#FFFFFF" />
<rect x="435" y="255" width="15" height="15" fill="#FFFFFF" />
<rect x="450" y="255" width="15" height="15" fill="#FFFFFF" />
<rect x="465" y="255" width="15" height="15" fill="#FFFFFF" />
<rect x="0" y="270" width="15" height="15" fill="#FFFFFF" />
<rect x="45" y="270" width="15" height="15" fill="#FFFFFF" />
<rect x="75" y="270" width="15" height="15" fill="#FFFFFF" />
<rect x="105" y="270" width="15" height="15" fill="#FFFFFF" />
<rect x="135" y="270" width="15" height="15" fill="#FFFFFF" />
<rect x="165" y="270" width="15" height="15" fill="#FFFFFF" />
<rect x="195" y="270" width="15" height="15" fill="#FFFFFF" />
<rect x="270" y="270" width="15" height="15" fill="#FFFFFF" />
<rect x="315" y="270" width="15" height="15" fill="#FFFFFF" />
<rect x="330" y="270" width="15" height="15" fill="#FFFFFF" />
<rect x="345" y="270" width="15" height="15" fill="#FFFFFF" />
<rect x="375" y="270" width="15" height="15" fill="#FFFFFF" />
<rect x="405" y="270" width="15" height="15" fill="#FFFFFF" />
<rect x="435" y="270" width="15" height="15" fill="#FFFFFF" />
<rect x="0" y="285" width="15" height="15" fill="#FFFFFF" />
<rect x="45" y="285" width="15" height="15" fill="#FFFFFF" />
<rect x="60" y="285" width="15" height="15" fill="#FFFFFF" />
<rect x="75" y="285" width="15" height="15" fill="#FFFFFF" />
<rect x="105" y="285" width="15" height="15" fill="#FFFFFF" />
<rect x="120" y="285" width="15" height="15" fill="#FFFFFF" />
<rect x="135" y="285" width="15" height="15" fill="#FFFFFF" />
<rect x="165" y="285" width="15" height="15" fill="#FFFFFF" />
<rect x="195" y="285" width="15" height="15" fill="#FFFFFF" />
<rect x="210" y="285" width="15" height="15" fill="#FFFFFF" />
<rect x="225" y="285" width="15" height="15" fill="#FFFFFF" />
<rect x="270" y="285" width="15" height="15" fill="#FFFFFF" />
<rect x="315" y="285" width="15" height="15" fill="#FFFFFF" />
<rect x="345" y="285" width="15" height="15" fill="#FFFFFF" />
<rect x="375" y="285" width="15" height="15" fill="#FFFFFF" />
<rect x="405" y="285" width="15" height="15" fill="#FFFFFF" />
<rect x="435" y="285" width="15" height="15" fill="#FFFFFF" />
<rect x="450" y="285" width="15" height="15" fill="#FFFFFF" />
<rect x="465" y="285" width="15" height="15" fill="#FFFFFF" />
<rect x="0" y="300" width="15" height="15" fill="#FFFFFF" />
<rect x="45" y="300" width="15" height="15" fill="#FFFFFF" />
<rect x="75" y="300" width="15" height="15" fill="#FFFFFF" />
<rect x="105" y="300" width="15" height="15" fill="#FFFFFF" />
<rect x="135" y="300" width="15" height="15" fill="#FFFFFF" />
<rect x="165" y="300" width="15" height="15" fill="#FFFFFF" />
<rect x="225" y="300" width="15" height="15" fill="#FFFFFF" />
<rect x="270" y="300" width="15" height="15" fill="#FFFFFF" />
<rect x="315" y="300" width="15" height="15" fill="#FFFFFF" />
<rect x="345" y="300" width="15" height="15" fill="#FFFFFF" />
<rect x="375" y="300" width="15" height="15" fill="#FFFFFF" />
<rect x="390" y="300" width="15" height="15" fill="#FFFFFF" />
<rect x="405" y="300" width="15" height="15" fill="#FFFFFF" />
<rect x="465" y="300" width="15" height="15" fill="#FFFFFF" />
<rect x="0" y="315" width="15" height="15" fill="#FFFFFF" />
<rect x="15" y="315" width="15" height="15" fill="#FFFFFF" />
<rect x="45" y="315" width="15" height="15" fill="#FFFFFF" />
<rect x="75" y="315" width="15" height="15" fill="#FFFFFF" />
<rect x="105" y="315" width="15" height="15" fill="#FFFFFF" />
<rect x="135" y="315" width="15" height="15" fill="#FFFFFF" />
<rect x="165" y="315" width="15" height="15" fill="#FFFFFF" />
<rect x="195" y="315" width="15" height="15" fill="#FFFFFF" />
<rect x="210" y="315" width="15" height="15" fill="#FFFFFF" />
<rect x="225" y="315" width="15" height="15" fill="#FFFFFF" />
<rect x="270" y="315" width="15" height="15" fill="#FFFFFF" />
<rect x="315" y="315" width="15" height="15" fill="#FFFFFF" />
<rect x="345" y="315" width="15" height="15" fill="#FFFFFF" />
<rect x="375" y="315" width="15" height="15" fill="#FFFFFF" />
<rect x="405" y="315" width="15" height="15" fill="#FFFFFF" />
<rect x="435" y="315" width="15" height="15" fill="#FFFFFF" />
<rect x="450" y="315" width="15" height="15" fill="#FFFFFF" />
<rect x="465" y="315" width="15" height="15" fill="#FFFFFF" />
</svg>